<?xml version="1.0" encoding="UTF-8"?>
<svg version="1.1" xmlns="http://www.w3.org/2000/svg" width="1024" height="1024">
<path d="M0 0 C337.92 0 675.84 0 1024 0 C1024 337.92 1024 675.84 1024 1024 C686.08 1024 348.16 1024 0 1024 C0 686.08 0 348.16 0 0 Z " fill="#FEFEFE" transform="translate(0,0)"/>
<path d="M0 0 C15.84 0 31.68 0 48 0 C48 10.56 48 21.12 48 32 C53.28 32 58.56 32 64 32 C64 37.28 64 42.56 64 48 C69.28 48 74.56 48 80 48 C80 58.56 80 69.12 80 80 C85.28 80 90.56 80 96 80 C96 90.56 96 101.12 96 112 C101.28 112 106.56 112 112 112 C112 117.28 112 122.56 112 128 C117.28 128 122.56 128 128 128 C128 138.56 128 149.12 128 160 C133.28 160 138.56 160 144 160 C144 170.56 144 181.12 144 192 C149.28 192 154.56 192 160 192 C160 202.56 160 213.12 160 224 C165.28 224 170.56 224 176 224 C176 229.28 176 234.56 176 240 C181.28 240 186.56 240 192 240 C192 250.56 192 261.12 192 272 C197.28 272 202.56 272 208 272 C208 282.56 208 293.12 208 304 C213.28 304 218.56 304 224 304 C224 314.56 224 325.12 224 336 C229.28 336 234.56 336 240 336 C240 341.28 240 346.56 240 352 C245.28 352 250.56 352 256 352 C256 362.56 256 373.12 256 384 C261.28 384 266.56 384 272 384 C272 405.12 272 426.24 272 448 C266.72 448 261.44 448 256 448 C256 453.28 256 458.56 256 464 C245.44 464 234.88 464 224 464 C224 469.28 224 474.56 224 480 C213.44 480 202.88 480 192 480 C192 485.28 192 490.56 192 496 C181.44 496 170.88 496 160 496 C160 501.28 160 506.56 160 512 C149.44 512 138.88 512 128 512 C128 517.28 128 522.56 128 528 C122.72 528 117.44 528 112 528 C112 533.28 112 538.56 112 544 C101.44 544 90.88 544 80 544 C80 549.28 80 554.56 80 560 C69.44 560 58.88 560 48 560 C48 565.28 48 570.56 48 576 C37.44 576 26.88 576 16 576 C16 581.28 16 586.56 16 592 C5.44 592 -5.12 592 -16 592 C-16 586.72 -16 581.44 -16 576 C-21.28 576 -26.56 576 -32 576 C-32 570.72 -32 565.44 -32 560 C-37.28 560 -42.56 560 -48 560 C-48 565.28 -48 570.56 -48 576 C-58.56 576 -69.12 576 -80 576 C-80 581.28 -80 586.56 -80 592 C-101.12 592 -122.24 592 -144 592 C-144 586.72 -144 581.44 -144 576 C-149.28 576 -154.56 576 -160 576 C-160 565.44 -160 554.88 -160 544 C-165.28 544 -170.56 544 -176 544 C-176 533.44 -176 522.88 -176 512 C-181.28 512 -186.56 512 -192 512 C-192 506.72 -192 501.44 -192 496 C-197.28 496 -202.56 496 -208 496 C-208 485.44 -208 474.88 -208 464 C-213.28 464 -218.56 464 -224 464 C-224 453.44 -224 442.88 -224 432 C-229.28 432 -234.56 432 -240 432 C-240 426.72 -240 421.44 -240 416 C-245.28 416 -250.56 416 -256 416 C-256 405.44 -256 394.88 -256 384 C-261.28 384 -266.56 384 -272 384 C-272 373.44 -272 362.88 -272 352 C-277.28 352 -282.56 352 -288 352 C-288 346.72 -288 341.44 -288 336 C-293.28 336 -298.56 336 -304 336 C-304 325.44 -304 314.88 -304 304 C-309.28 304 -314.56 304 -320 304 C-320 293.44 -320 282.88 -320 272 C-325.28 272 -330.56 272 -336 272 C-336 266.72 -336 261.44 -336 256 C-341.28 256 -346.56 256 -352 256 C-352 224.32 -352 192.64 -352 160 C-346.72 160 -341.44 160 -336 160 C-336 154.72 -336 149.44 -336 144 C-330.72 144 -325.44 144 -320 144 C-320 138.72 -320 133.44 -320 128 C-309.44 128 -298.88 128 -288 128 C-288 122.72 -288 117.44 -288 112 C-277.44 112 -266.88 112 -256 112 C-256 106.72 -256 101.44 -256 96 C-245.44 96 -234.88 96 -224 96 C-224 90.72 -224 85.44 -224 80 C-213.44 80 -202.88 80 -192 80 C-192 74.72 -192 69.44 -192 64 C-186.72 64 -181.44 64 -176 64 C-176 58.72 -176 53.44 -176 48 C-165.44 48 -154.88 48 -144 48 C-144 42.72 -144 37.44 -144 32 C-133.44 32 -122.88 32 -112 32 C-112 26.72 -112 21.44 -112 16 C-96.16 16 -80.32 16 -64 16 C-64 26.56 -64 37.12 -64 48 C-58.72 48 -53.44 48 -48 48 C-48 42.72 -48 37.44 -48 32 C-42.72 32 -37.44 32 -32 32 C-32 26.72 -32 21.44 -32 16 C-21.44 16 -10.88 16 0 16 C0 10.72 0 5.44 0 0 Z " fill="#FEB570" transform="translate(560,32)"/>
<path d="M0 0 C15.84 0 31.68 0 48 0 C48 10.89 48 21.78 48 33 C53.28 33 58.56 33 64 33 C64 37.95 64 42.9 64 48 C69.28 48 74.56 48 80 48 C80 58.56 80 69.12 80 80 C85.28 80 90.56 80 96 80 C96 90.56 96 101.12 96 112 C101.28 112 106.56 112 112 112 C112 117.28 112 122.56 112 128 C117.28 128 122.56 128 128 128 C128 138.56 128 149.12 128 160 C133.28 160 138.56 160 144 160 C144 186.4 144 212.8 144 240 C133.44 240 122.88 240 112 240 C112 245.28 112 250.56 112 256 C106.72 256 101.44 256 96 256 C96 261.28 96 266.56 96 272 C85.44 272 74.88 272 64 272 C64 277.28 64 282.56 64 288 C53.44 288 42.88 288 32 288 C32 293.28 32 298.56 32 304 C21.44 304 10.88 304 0 304 C0 309.28 0 314.56 0 320 C-5.28 320 -10.56 320 -16 320 C-16 325.28 -16 330.56 -16 336 C-21.28 336 -26.56 336 -32 336 C-32 346.89 -32 357.78 -32 369 C-26.72 369 -21.44 369 -16 369 C-16 373.95 -16 378.9 -16 384 C-10.72 384 -5.44 384 0 384 C0 394.56 0 405.12 0 416 C5.28 416 10.56 416 16 416 C16 426.56 16 437.12 16 448 C21.28 448 26.56 448 32 448 C32 458.56 32 469.12 32 480 C37.28 480 42.56 480 48 480 C48 490.56 48 501.12 48 512 C53.28 512 58.56 512 64 512 C64 527.84 64 543.68 64 560 C53.44 560 42.88 560 32 560 C32 565.28 32 570.56 32 576 C10.88 576 -10.24 576 -32 576 C-32 570.72 -32 565.44 -32 560 C-37.28 560 -42.56 560 -48 560 C-48 549.44 -48 538.88 -48 528 C-53.28 528 -58.56 528 -64 528 C-64 517.44 -64 506.88 -64 496 C-69.28 496 -74.56 496 -80 496 C-80 490.72 -80 485.44 -80 480 C-85.28 480 -90.56 480 -96 480 C-96 469.44 -96 458.88 -96 448 C-101.28 448 -106.56 448 -112 448 C-112 437.44 -112 426.88 -112 416 C-117.28 416 -122.56 416 -128 416 C-128 410.72 -128 405.44 -128 400 C-133.28 400 -138.56 400 -144 400 C-144 389.44 -144 378.88 -144 368 C-149.28 368 -154.56 368 -160 368 C-160 357.44 -160 346.88 -160 336 C-165.28 336 -170.56 336 -176 336 C-176 330.72 -176 325.44 -176 320 C-181.28 320 -186.56 320 -192 320 C-192 309.44 -192 298.88 -192 288 C-197.28 288 -202.56 288 -208 288 C-208 277.44 -208 266.88 -208 256 C-213.28 256 -218.56 256 -224 256 C-224 250.72 -224 245.44 -224 240 C-229.28 240 -234.56 240 -240 240 C-240 208.32 -240 176.64 -240 144 C-234.72 144 -229.44 144 -224 144 C-224 138.72 -224 133.44 -224 128 C-218.72 128 -213.44 128 -208 128 C-208 122.72 -208 117.44 -208 112 C-197.44 112 -186.88 112 -176 112 C-176 106.72 -176 101.44 -176 96 C-165.44 96 -154.88 96 -144 96 C-144 90.72 -144 85.44 -144 80 C-133.44 80 -122.88 80 -112 80 C-112 74.72 -112 69.44 -112 64 C-101.44 64 -90.88 64 -80 64 C-80 58.72 -80 53.44 -80 48 C-74.72 48 -69.44 48 -64 48 C-64 42.72 -64 37.44 -64 32 C-53.44 32 -42.88 32 -32 32 C-32 26.72 -32 21.44 -32 16 C-21.44 16 -10.88 16 0 16 C0 10.72 0 5.44 0 0 Z " fill="#EA564B" transform="translate(448,48)"/>
<path d="M0 0 C10.56 0 21.12 0 32 0 C32 31.68 32 63.36 32 96 C37.28 96 42.56 96 48 96 C48 64.32 48 32.64 48 0 C58.56 0 69.12 0 80 0 C80 5.28 80 10.56 80 16 C85.28 16 90.56 16 96 16 C96 21.28 96 26.56 96 32 C101.28 32 106.56 32 112 32 C112 42.56 112 53.12 112 64 C117.28 64 122.56 64 128 64 C128 42.88 128 21.76 128 0 C138.56 0 149.12 0 160 0 C160 15.51 160 31.02 160 47 C175.84 47 191.68 47 208 47 C208 42.05 208 37.1 208 32 C244.96 32 281.92 32 320 32 C320 26.72 320 21.44 320 16 C341.12 16 362.24 16 384 16 C384 31.84 384 47.68 384 64 C362.88 64 341.76 64 320 64 C320 69.28 320 74.56 320 80 C314.72 80 309.44 80 304 80 C304 101.12 304 122.24 304 144 C309.28 144 314.56 144 320 144 C320 154.56 320 165.12 320 176 C309.44 176 298.88 176 288 176 C288 181.28 288 186.56 288 192 C251.04 192 214.08 192 176 192 C176 197.28 176 202.56 176 208 C154.88 208 133.76 208 112 208 C112 213.28 112 218.56 112 224 C90.88 224 69.76 224 48 224 C48 229.28 48 234.56 48 240 C26.88 240 5.76 240 -16 240 C-16 245.28 -16 250.56 -16 256 C-31.84 256 -47.68 256 -64 256 C-64 261.28 -64 266.56 -64 272 C-79.84 272 -95.68 272 -112 272 C-112 277.28 -112 282.56 -112 288 C-127.84 288 -143.68 288 -160 288 C-160 293.28 -160 298.56 -160 304 C-186.4 304 -212.8 304 -240 304 C-240 293.44 -240 282.88 -240 272 C-234.72 272 -229.44 272 -224 272 C-224 266.72 -224 261.44 -224 256 C-218.72 256 -213.44 256 -208 256 C-208 250.72 -208 245.44 -208 240 C-202.72 240 -197.44 240 -192 240 C-192 234.72 -192 229.44 -192 224 C-186.72 224 -181.44 224 -176 224 C-176 218.72 -176 213.44 -176 208 C-160.16 208 -144.32 208 -128 208 C-128 197.44 -128 186.88 -128 176 C-122.72 176 -117.44 176 -112 176 C-112 170.72 -112 165.44 -112 160 C-96.16 160 -80.32 160 -64 160 C-64 154.72 -64 149.44 -64 144 C-69.28 144 -74.56 144 -80 144 C-80 122.88 -80 101.76 -80 80 C-74.72 80 -69.44 80 -64 80 C-64 74.72 -64 69.44 -64 64 C-42.88 64 -21.76 64 0 64 C0 42.88 0 21.76 0 0 Z " fill="#323E4F" transform="translate(368,672)"/>
<path d="M0 0 C10.56 0 21.12 0 32 0 C32 5.28 32 10.56 32 16 C37.28 16 42.56 16 48 16 C48 21.28 48 26.56 48 32 C53.28 32 58.56 32 64 32 C64 42.56 64 53.12 64 64 C69.28 64 74.56 64 80 64 C80 42.88 80 21.76 80 0 C90.56 0 101.12 0 112 0 C112 15.51 112 31.02 112 47 C127.84 47 143.68 47 160 47 C160 42.05 160 37.1 160 32 C181.12 32 202.24 32 224 32 C224 42.56 224 53.12 224 64 C229.28 64 234.56 64 240 64 C240 90.4 240 116.8 240 144 C234.72 144 229.44 144 224 144 C224 154.56 224 165.12 224 176 C202.88 176 181.76 176 160 176 C160 165.44 160 154.88 160 144 C154.72 144 149.44 144 144 144 C144 117.6 144 91.2 144 64 C149.28 64 154.56 64 160 64 C160 58.72 160 53.44 160 48 C144.16 48 128.32 48 112 48 C112 90.24 112 132.48 112 176 C101.44 176 90.88 176 80 176 C80 160.16 80 144.32 80 128 C74.72 128 69.44 128 64 128 C64 122.72 64 117.44 64 112 C58.72 112 53.44 112 48 112 C48 101.44 48 90.88 48 80 C42.72 80 37.44 80 32 80 C32 111.68 32 143.36 32 176 C21.44 176 10.88 176 0 176 C0 117.92 0 59.84 0 0 Z " fill="#4EA5FD" transform="translate(416,672)"/>
<path d="M0 0 C21.12 0 42.24 0 64 0 C64 15.84 64 31.68 64 48 C42.88 48 21.76 48 0 48 C0 53.28 0 58.56 0 64 C-5.28 64 -10.56 64 -16 64 C-16 85.12 -16 106.24 -16 128 C-10.72 128 -5.44 128 0 128 C0 138.56 0 149.12 0 160 C-10.56 160 -21.12 160 -32 160 C-32 165.28 -32 170.56 -32 176 C-68.96 176 -105.92 176 -144 176 C-144 181.28 -144 186.56 -144 192 C-165.12 192 -186.24 192 -208 192 C-208 197.28 -208 202.56 -208 208 C-229.12 208 -250.24 208 -272 208 C-272 213.28 -272 218.56 -272 224 C-293.12 224 -314.24 224 -336 224 C-336 229.28 -336 234.56 -336 240 C-351.84 240 -367.68 240 -384 240 C-384 245.28 -384 250.56 -384 256 C-399.84 256 -415.68 256 -432 256 C-432 261.28 -432 266.56 -432 272 C-448.17 272 -464.34 272 -481 272 C-481 276.95 -481 281.9 -481 287 C-506.74 287 -532.48 287 -559 287 C-559 277.1 -559 267.2 -559 257 C-554.05 257 -549.1 257 -544 257 C-544 261.95 -544 266.9 -544 272 C-528.16 272 -512.32 272 -496 272 C-496 266.72 -496 261.44 -496 256 C-480.16 256 -464.32 256 -448 256 C-448 250.72 -448 245.44 -448 240 C-432.16 240 -416.32 240 -400 240 C-400 234.72 -400 229.44 -400 224 C-384.16 224 -368.32 224 -352 224 C-352 218.72 -352 213.44 -352 208 C-330.88 208 -309.76 208 -288 208 C-288 202.72 -288 197.44 -288 192 C-266.88 192 -245.76 192 -224 192 C-224 186.72 -224 181.44 -224 176 C-202.88 176 -181.76 176 -160 176 C-160 128.48 -160 80.96 -160 32 C-144.16 32 -128.32 32 -112 32 C-112 37.28 -112 42.56 -112 48 C-117.28 48 -122.56 48 -128 48 C-128 74.4 -128 100.8 -128 128 C-122.72 128 -117.44 128 -112 128 C-112 138.56 -112 149.12 -112 160 C-90.88 160 -69.76 160 -48 160 C-48 149.44 -48 138.88 -48 128 C-42.72 128 -37.44 128 -32 128 C-32 101.6 -32 75.2 -32 48 C-37.28 48 -42.56 48 -48 48 C-48 37.44 -48 26.88 -48 16 C-32.16 16 -16.32 16 0 16 C0 10.72 0 5.44 0 0 Z " fill="#292A39" transform="translate(688,688)"/>
<path d="M0 0 C4.95 0 9.9 0 15 0 C15 10.23 15 20.46 15 31 C20.28 31 25.56 31 31 31 C31 41.56 31 52.12 31 63 C36.28 63 41.56 63 47 63 C47 68.28 47 73.56 47 79 C52.28 79 57.56 79 63 79 C63 89.56 63 100.12 63 111 C68.28 111 73.56 111 79 111 C79 121.56 79 132.12 79 143 C84.28 143 89.56 143 95 143 C95 148.28 95 153.56 95 159 C100.28 159 105.56 159 111 159 C111 169.56 111 180.12 111 191 C126.84 191 142.68 191 159 191 C159 185.72 159 180.44 159 175 C169.56 175 180.12 175 191 175 C191 169.72 191 164.44 191 159 C201.56 159 212.12 159 223 159 C223 153.72 223 148.44 223 143 C228.28 143 233.56 143 239 143 C239 137.72 239 132.44 239 127 C249.56 127 260.12 127 271 127 C271 121.72 271 116.44 271 111 C281.56 111 292.12 111 303 111 C303 105.72 303 100.44 303 95 C313.56 95 324.12 95 335 95 C335 89.72 335 84.44 335 79 C345.56 79 356.12 79 367 79 C367 73.72 367 68.44 367 63 C372.28 63 377.56 63 383 63 C383 57.72 383 52.44 383 47 C387.95 47 392.9 47 398 47 C398 62.51 398 78.02 398 94 C393.05 94 388.1 94 383 94 C383 99.61 383 105.22 383 111 C372.44 111 361.88 111 351 111 C351 116.28 351 121.56 351 127 C340.44 127 329.88 127 319 127 C319 132.28 319 137.56 319 143 C308.44 143 297.88 143 287 143 C287 148.28 287 153.56 287 159 C276.44 159 265.88 159 255 159 C255 164.28 255 169.56 255 175 C249.72 175 244.44 175 239 175 C239 180.28 239 185.56 239 191 C228.44 191 217.88 191 207 191 C207 196.28 207 201.56 207 207 C196.44 207 185.88 207 175 207 C175 212.28 175 217.56 175 223 C164.44 223 153.88 223 143 223 C143 228.28 143 233.56 143 239 C132.44 239 121.88 239 111 239 C111 233.72 111 228.44 111 223 C105.72 223 100.44 223 95 223 C95 217.72 95 212.44 95 207 C89.72 207 84.44 207 79 207 C79 196.44 79 185.88 79 175 C73.72 175 68.44 175 63 175 C63 164.44 63 153.88 63 143 C57.72 143 52.44 143 47 143 C47 132.44 47 121.88 47 111 C41.72 111 36.44 111 31 111 C31 100.44 31 89.88 31 79 C25.72 79 20.44 79 15 79 C15 68.44 15 57.88 15 47 C9.72 47 4.44 47 -1 47 C-1 42.05 -1 37.1 -1 32 C-6.28 32 -11.56 32 -17 32 C-17 31.67 -17 31.34 -17 31 C-11.39 31 -5.78 31 0 31 C0 20.77 0 10.54 0 0 Z " fill="#FE9166" transform="translate(433,385)"/>
<path d="M0 0 C4.95 0 9.9 0 15 0 C15 10.56 15 21.12 15 32 C20.28 32 25.56 32 31 32 C31 37.28 31 42.56 31 48 C36.28 48 41.56 48 47 48 C47 58.56 47 69.12 47 80 C52.28 80 57.56 80 63 80 C63 90.56 63 101.12 63 112 C68.28 112 73.56 112 79 112 C79 122.56 79 133.12 79 144 C84.28 144 89.56 144 95 144 C95 149.28 95 154.56 95 160 C100.28 160 105.56 160 111 160 C111 170.56 111 181.12 111 192 C116.28 192 121.56 192 127 192 C127 202.56 127 213.12 127 224 C132.28 224 137.56 224 143 224 C143 234.56 143 245.12 143 256 C148.28 256 153.56 256 159 256 C159 261.28 159 266.56 159 272 C164.28 272 169.56 272 175 272 C175 282.56 175 293.12 175 304 C180.28 304 185.56 304 191 304 C191 314.56 191 325.12 191 336 C196.28 336 201.56 336 207 336 C207 341.28 207 346.56 207 352 C212.28 352 217.56 352 223 352 C223 362.56 223 373.12 223 384 C238.84 384 254.68 384 271 384 C271 378.72 271 373.44 271 368 C281.56 368 292.12 368 303 368 C303 378.56 303 389.12 303 400 C292.44 400 281.88 400 271 400 C271 405.28 271 410.56 271 416 C249.88 416 228.76 416 207 416 C207 410.72 207 405.44 207 400 C201.72 400 196.44 400 191 400 C191 389.44 191 378.88 191 368 C185.72 368 180.44 368 175 368 C175 357.44 175 346.88 175 336 C169.72 336 164.44 336 159 336 C159 330.72 159 325.44 159 320 C153.72 320 148.44 320 143 320 C143 309.44 143 298.88 143 288 C137.72 288 132.44 288 127 288 C127 277.44 127 266.88 127 256 C121.72 256 116.44 256 111 256 C111 250.72 111 245.44 111 240 C105.72 240 100.44 240 95 240 C95 229.44 95 218.88 95 208 C89.72 208 84.44 208 79 208 C79 197.44 79 186.88 79 176 C73.72 176 68.44 176 63 176 C63 170.72 63 165.44 63 160 C57.72 160 52.44 160 47 160 C47 149.44 47 138.88 47 128 C41.72 128 36.44 128 31 128 C31 117.44 31 106.88 31 96 C25.72 96 20.44 96 15 96 C15 90.39 15 84.78 15 79 C10.05 79 5.1 79 0 79 C0 52.93 0 26.86 0 0 Z " fill="#974354" transform="translate(209,208)"/>
<path d="M0 0 C36.96 0 73.92 0 112 0 C112 5.28 112 10.56 112 16 C117.28 16 122.56 16 128 16 C128 21.28 128 26.56 128 32 C133.28 32 138.56 32 144 32 C144 37.28 144 42.56 144 48 C149.28 48 154.56 48 160 48 C160 53.28 160 58.56 160 64 C165.28 64 170.56 64 176 64 C176 69.28 176 74.56 176 80 C181.28 80 186.56 80 192 80 C192 85.28 192 90.56 192 96 C197.28 96 202.56 96 208 96 C208 117.12 208 138.24 208 160 C181.6 160 155.2 160 128 160 C128 154.72 128 149.44 128 144 C117.44 144 106.88 144 96 144 C96 138.72 96 133.44 96 128 C101.28 128 106.56 128 112 128 C112 122.72 112 117.44 112 112 C90.88 112 69.76 112 48 112 C48 106.72 48 101.44 48 96 C69.12 96 90.24 96 112 96 C112 80.16 112 64.32 112 48 C106.72 48 101.44 48 96 48 C96 37.44 96 26.88 96 16 C74.88 16 53.76 16 32 16 C32 26.56 32 37.12 32 48 C26.72 48 21.44 48 16 48 C16 74.4 16 100.8 16 128 C10.72 128 5.44 128 0 128 C0 85.76 0 43.52 0 0 Z " fill="#292A39" transform="translate(784,688)"/>
<path d="M0 0 C31.68 0 63.36 0 96 0 C96 5.28 96 10.56 96 16 C101.28 16 106.56 16 112 16 C112 37.12 112 58.24 112 80 C106.72 80 101.44 80 96 80 C96 90.56 96 101.12 96 112 C80.16 112 64.32 112 48 112 C48 133.12 48 154.24 48 176 C32.16 176 16.32 176 0 176 C0 117.92 0 59.84 0 0 Z " fill="#90DE5F" transform="translate(160,672)"/>
<path d="M0 0 C10.56 0 21.12 0 32 0 C32 58.08 32 116.16 32 176 C0.32 176 -31.36 176 -64 176 C-64 165.44 -64 154.88 -64 144 C-69.28 144 -74.56 144 -80 144 C-80 122.88 -80 101.76 -80 80 C-74.72 80 -69.44 80 -64 80 C-64 74.72 -64 69.44 -64 64 C-42.88 64 -21.76 64 0 64 C0 42.88 0 21.76 0 0 Z " fill="#4DA5FD" transform="translate(752,672)"/>
<path d="M0 0 C10.56 0 21.12 0 32 0 C32 58.08 32 116.16 32 176 C0.32 176 -31.36 176 -64 176 C-64 165.44 -64 154.88 -64 144 C-69.28 144 -74.56 144 -80 144 C-80 122.88 -80 101.76 -80 80 C-74.72 80 -69.44 80 -64 80 C-64 74.72 -64 69.44 -64 64 C-42.88 64 -21.76 64 0 64 C0 42.88 0 21.76 0 0 Z " fill="#8FDD5E" transform="translate(368,672)"/>
<path d="M0 0 C20.79 0 41.58 0 63 0 C63 10.23 63 20.46 63 31 C68.28 31 73.56 31 79 31 C79 57.4 79 83.8 79 111 C73.72 111 68.44 111 63 111 C63 121.56 63 132.12 63 143 C41.88 143 20.76 143 -1 143 C-1 132.44 -1 121.88 -1 111 C-6.28 111 -11.56 111 -17 111 C-17 84.6 -17 58.2 -17 31 C-11.72 31 -6.44 31 -1 31 C-1.020625 28.669375 -1.04125 26.33875 -1.0625 23.9375 C-1.13395418 15.86317754 -0.54260367 8.1390551 0 0 Z " fill="#4CA4FC" transform="translate(577,705)"/>
<path d="M0 0 C5.28 0 10.56 0 16 0 C16 5.28 16 10.56 16 16 C21.28 16 26.56 16 32 16 C32 26.56 32 37.12 32 48 C37.28 48 42.56 48 48 48 C48 53.28 48 58.56 48 64 C42.72 64 37.44 64 32 64 C32 69.28 32 74.56 32 80 C26.72 80 21.44 80 16 80 C16 85.28 16 90.56 16 96 C5.44 96 -5.12 96 -16 96 C-16 101.28 -16 106.56 -16 112 C-26.56 112 -37.12 112 -48 112 C-48 117.28 -48 122.56 -48 128 C-58.56 128 -69.12 128 -80 128 C-80 122.72 -80 117.44 -80 112 C-85.28 112 -90.56 112 -96 112 C-96 106.72 -96 101.44 -96 96 C-101.28 96 -106.56 96 -112 96 C-112 85.44 -112 74.88 -112 64 C-106.72 64 -101.44 64 -96 64 C-96 58.72 -96 53.44 -96 48 C-85.44 48 -74.88 48 -64 48 C-64 42.72 -64 37.44 -64 32 C-58.72 32 -53.44 32 -48 32 C-48 26.72 -48 21.44 -48 16 C-32.16 16 -16.32 16 0 16 C0 10.72 0 5.44 0 0 Z " fill="#FFFDFD" transform="translate(656,368)"/>
<path d="M0 0 C21.12 0 42.24 0 64 0 C64 10.56 64 21.12 64 32 C69.28 32 74.56 32 80 32 C80 47.84 80 63.68 80 80 C58.88 80 37.76 80 16 80 C16 85.28 16 90.56 16 96 C37.12 96 58.24 96 80 96 C80 101.28 80 106.56 80 112 C74.72 112 69.44 112 64 112 C64 117.28 64 122.56 64 128 C74.56 128 85.12 128 96 128 C96 133.28 96 138.56 96 144 C95.67 144 95.34 144 95 144 C95 139.05 95 134.1 95 129 C84.77 129 74.54 129 64 129 C64 133.95 64 138.9 64 144 C42.88 144 21.76 144 0 144 C0 133.44 0 122.88 0 112 C-5.28 112 -10.56 112 -16 112 C-16 85.6 -16 59.2 -16 32 C-10.72 32 -5.44 32 0 32 C0 21.44 0 10.88 0 0 Z " fill="#4DA4FC" transform="translate(816,704)"/>
<path d="M0 0 C10.56 0 21.12 0 32 0 C32 10.56 32 21.12 32 32 C37.28 32 42.56 32 48 32 C48 42.56 48 53.12 48 64 C42.72 64 37.44 64 32 64 C32 69.28 32 74.56 32 80 C21.44 80 10.88 80 0 80 C0 85.28 0 90.56 0 96 C-10.56 96 -21.12 96 -32 96 C-32 101.28 -32 106.56 -32 112 C-47.84 112 -63.68 112 -80 112 C-80 106.72 -80 101.44 -80 96 C-85.28 96 -90.56 96 -96 96 C-96 90.72 -96 85.44 -96 80 C-101.28 80 -106.56 80 -112 80 C-112 74.72 -112 69.44 -112 64 C-101.44 64 -90.88 64 -80 64 C-80 58.72 -80 53.44 -80 48 C-74.72 48 -69.44 48 -64 48 C-64 42.72 -64 37.44 -64 32 C-53.44 32 -42.88 32 -32 32 C-32 26.72 -32 21.44 -32 16 C-21.44 16 -10.88 16 0 16 C0 10.72 0 5.44 0 0 Z " fill="#FEFCFC" transform="translate(432,176)"/>
<path d="M0 0 C10.56 0 21.12 0 32 0 C32 5.28 32 10.56 32 16 C37.28 16 42.56 16 48 16 C48 21.28 48 26.56 48 32 C53.28 32 58.56 32 64 32 C64 42.56 64 53.12 64 64 C69.28 64 74.56 64 80 64 C80 74.56 80 85.12 80 96 C74.72 96 69.44 96 64 96 C64 101.28 64 106.56 64 112 C58.72 112 53.44 112 48 112 C48 101.44 48 90.88 48 80 C42.72 80 37.44 80 32 80 C32 69.44 32 58.88 32 48 C21.44 48 10.88 48 0 48 C0 53.28 0 58.56 0 64 C-10.56 64 -21.12 64 -32 64 C-32 69.28 -32 74.56 -32 80 C-42.56 80 -53.12 80 -64 80 C-64 85.28 -64 90.56 -64 96 C-69.28 96 -74.56 96 -80 96 C-80 101.28 -80 106.56 -80 112 C-90.56 112 -101.12 112 -112 112 C-112 96.16 -112 80.32 -112 64 C-101.44 64 -90.88 64 -80 64 C-80 58.72 -80 53.44 -80 48 C-74.72 48 -69.44 48 -64 48 C-64 42.72 -64 37.44 -64 32 C-53.44 32 -42.88 32 -32 32 C-32 26.72 -32 21.44 -32 16 C-21.44 16 -10.88 16 0 16 C0 10.72 0 5.44 0 0 Z " fill="#974354" transform="translate(432,128)"/>
<path d="M0 0 C5.28 0 10.56 0 16 0 C16 5.28 16 10.56 16 16 C21.28 16 26.56 16 32 16 C32 21.28 32 26.56 32 32 C37.28 32 42.56 32 48 32 C48 37.28 48 42.56 48 48 C53.28 48 58.56 48 64 48 C64 69.12 64 90.24 64 112 C59.05 112 54.1 112 49 112 C49 106.72 49 101.44 49 96 C43.39 96 37.78 96 32 96 C32 85.44 32 74.88 32 64 C26.72 64 21.44 64 16 64 C16 58.72 16 53.44 16 48 C10.72 48 5.44 48 0 48 C0 53.28 0 58.56 0 64 C-15.84 64 -31.68 64 -48 64 C-48 69.28 -48 74.56 -48 80 C-53.28 80 -58.56 80 -64 80 C-64 85.28 -64 90.56 -64 96 C-74.89 96 -85.78 96 -97 96 C-97 100.95 -97 105.9 -97 111 C-106.9 111 -116.8 111 -127 111 C-127 101.1 -127 91.2 -127 81 C-122.05 81 -117.1 81 -112 81 C-112 75.39 -112 69.78 -112 64 C-101.44 64 -90.88 64 -80 64 C-80 58.72 -80 53.44 -80 48 C-69.44 48 -58.88 48 -48 48 C-48 42.72 -48 37.44 -48 32 C-37.44 32 -26.88 32 -16 32 C-16 26.72 -16 21.44 -16 16 C-10.72 16 -5.44 16 0 16 C0 10.72 0 5.44 0 0 Z " fill="#FF9267" transform="translate(656,320)"/>
<path d="M0 0 C21.12 0 42.24 0 64 0 C64 15.84 64 31.68 64 48 C42.88 48 21.76 48 0 48 C0 53.28 0 58.56 0 64 C-5.28 64 -10.56 64 -16 64 C-16 85.12 -16 106.24 -16 128 C-10.72 128 -5.44 128 0 128 C0 138.56 0 149.12 0 160 C-10.56 160 -21.12 160 -32 160 C-32 159.67 -32 159.34 -32 159 C-21.77 159 -11.54 159 -1 159 C-1 154.05 -1 149.1 -1 144 C-16.18 144 -31.36 144 -47 144 C-47 149.28 -47 154.56 -47 160 C-47.33 160 -47.66 160 -48 160 C-48 149.44 -48 138.88 -48 128 C-42.72 128 -37.44 128 -32 128 C-32 101.6 -32 75.2 -32 48 C-37.28 48 -42.56 48 -48 48 C-48 37.44 -48 26.88 -48 16 C-32.16 16 -16.32 16 0 16 C0 10.72 0 5.44 0 0 Z " fill="#334053" transform="translate(688,688)"/>
<path d="M0 0 C10.56 0 21.12 0 32 0 C32 10.56 32 21.12 32 32 C21.44 32 10.88 32 0 32 C0 37.28 0 42.56 0 48 C-5.28 48 -10.56 48 -16 48 C-16 53.28 -16 58.56 -16 64 C-26.56 64 -37.12 64 -48 64 C-48 69.28 -48 74.56 -48 80 C-58.56 80 -69.12 80 -80 80 C-80 85.28 -80 90.56 -80 96 C-90.56 96 -101.12 96 -112 96 C-112 101.28 -112 106.56 -112 112 C-117.28 112 -122.56 112 -128 112 C-128 117.28 -128 122.56 -128 128 C-138.56 128 -149.12 128 -160 128 C-160 117.44 -160 106.88 -160 96 C-154.72 96 -149.44 96 -144 96 C-144 90.72 -144 85.44 -144 80 C-133.44 80 -122.88 80 -112 80 C-112 74.72 -112 69.44 -112 64 C-101.44 64 -90.88 64 -80 64 C-80 58.72 -80 53.44 -80 48 C-69.44 48 -58.88 48 -48 48 C-48 42.72 -48 37.44 -48 32 C-42.72 32 -37.44 32 -32 32 C-32 26.72 -32 21.44 -32 16 C-21.44 16 -10.88 16 0 16 C0 10.72 0 5.44 0 0 Z " fill="#984454" transform="translate(560,256)"/>
<path d="M0 0 C9.9 0 19.8 0 30 0 C30 10.23 30 20.46 30 31 C35.61 31 41.22 31 47 31 C47 41.56 47 52.12 47 63 C52.28 63 57.56 63 63 63 C63 73.56 63 84.12 63 95 C68.28 95 73.56 95 79 95 C79 105.56 79 116.12 79 127 C84.28 127 89.56 127 95 127 C95 132.28 95 137.56 95 143 C100.28 143 105.56 143 111 143 C111 153.56 111 164.12 111 175 C116.28 175 121.56 175 127 175 C127 185.56 127 196.12 127 207 C121.72 207 116.44 207 111 207 C111 212.28 111 217.56 111 223 C106.05 223 101.1 223 96 223 C96 207.16 96 191.32 96 175 C90.39 175 84.78 175 79 175 C79 164.44 79 153.88 79 143 C73.72 143 68.44 143 63 143 C63 132.44 63 121.88 63 111 C57.72 111 52.44 111 47 111 C47 105.72 47 100.44 47 95 C41.72 95 36.44 95 31 95 C31 84.44 31 73.88 31 63 C25.72 63 20.44 63 15 63 C15 52.44 15 41.88 15 31 C9.72 31 4.44 31 -1 31 C-1 26.05 -1 21.1 -1 16 C-6.28 16 -11.56 16 -17 16 C-17 15.67 -17 15.34 -17 15 C-11.39 15 -5.78 15 0 15 C0 10.05 0 5.1 0 0 Z " fill="#FE9065" transform="translate(513,65)"/>
<path d="M0 0 C5.28 0 10.56 0 16 0 C16 5.28 16 10.56 16 16 C21.28 16 26.56 16 32 16 C32 21.28 32 26.56 32 32 C37.28 32 42.56 32 48 32 C48 37.28 48 42.56 48 48 C53.28 48 58.56 48 64 48 C64 53.28 64 58.56 64 64 C69.28 64 74.56 64 80 64 C80 74.56 80 85.12 80 96 C64.16 96 48.32 96 32 96 C32 90.72 32 85.44 32 80 C21.44 80 10.88 80 0 80 C0 74.72 0 69.44 0 64 C-21.12 64 -42.24 64 -64 64 C-64 58.72 -64 53.44 -64 48 C-42.88 48 -21.76 48 0 48 C0 32.16 0 16.32 0 0 Z " fill="#323E50" transform="translate(896,736)"/>
<path d="M0 0 C15.84 0 31.68 0 48 0 C48 5.28 48 10.56 48 16 C42.72 16 37.44 16 32 16 C32 42.4 32 68.8 32 96 C37.28 96 42.56 96 48 96 C48 106.56 48 117.12 48 128 C32.16 128 16.32 128 0 128 C0 85.76 0 43.52 0 0 Z " fill="#323F51" transform="translate(528,720)"/>
<path d="M0 0 C15.18 0 30.36 0 46 0 C46 4.95 46 9.9 46 15 C35.77 15 25.54 15 15 15 C15 20.28 15 25.56 15 31 C9.72 31 4.44 31 -1 31 C-1 41.56 -1 52.12 -1 63 C-16.84 63 -32.68 63 -49 63 C-49 68.28 -49 73.56 -49 79 C-54.28 79 -59.56 79 -65 79 C-65 84.28 -65 89.56 -65 95 C-70.28 95 -75.56 95 -81 95 C-81 100.28 -81 105.56 -81 111 C-91.23 111 -101.46 111 -112 111 C-112 106.05 -112 101.1 -112 96 C-107.05 96 -102.1 96 -97 96 C-97 90.39 -97 84.78 -97 79 C-91.72 79 -86.44 79 -81 79 C-81 73.72 -81 68.44 -81 63 C-75.72 63 -70.44 63 -65 63 C-65 57.72 -65 52.44 -65 47 C-49.16 47 -33.32 47 -17 47 C-17 36.44 -17 25.88 -17 15 C-11.39 15 -5.78 15 0 15 C0 10.05 0 5.1 0 0 Z " fill="#292938" transform="translate(257,833)"/>
<path d="M0 0 C36.96 0 73.92 0 112 0 C112 5.28 112 10.56 112 16 C111.67 16 111.34 16 111 16 C111 11.05 111 6.1 111 1 C74.7 1 38.4 1 1 1 C1 5.95 1 10.9 1 16 C11.23 16 21.46 16 32 16 C32 26.56 32 37.12 32 48 C26.72 48 21.44 48 16 48 C16 74.4 16 100.8 16 128 C10.72 128 5.44 128 0 128 C0 85.76 0 43.52 0 0 Z " fill="#354255" transform="translate(784,688)"/>
<path d="M0 0 C20.46 0 40.92 0 62 0 C62 4.95 62 9.9 62 15 C46.49 15 30.98 15 15 15 C15 20.28 15 25.56 15 31 C-5.79 31 -26.58 31 -48 31 C-48 26.05 -48 21.1 -48 16 C-32.49 15.67 -16.98 15.34 -1 15 C-0.67 10.05 -0.34 5.1 0 0 Z " fill="#272736" transform="translate(689,689)"/>
<path d="M0 0 C5.28 0 10.56 0 16 0 C16 5.61 16 11.22 16 17 C11.05 17 6.1 17 1 17 C1.0395679 21.89153471 1.0395679 21.89153471 1.09008789 26.78295898 C1.09724913 28.52221717 1.05024702 30.26145304 1 32 C0 33 0 33 -2.95922852 33.11352539 C-4.25272217 33.10828857 -5.54621582 33.10305176 -6.87890625 33.09765625 C-7.90889992 33.09553383 -7.90889992 33.09553383 -8.95970154 33.09336853 C-11.16067801 33.08775479 -13.36155409 33.07520007 -15.5625 33.0625 C-17.05143083 33.05748676 -18.54036324 33.05292355 -20.02929688 33.04882812 C-23.68623075 33.03778093 -27.34310558 33.02050713 -31 33 C-30.98839844 34.07121094 -30.97679687 35.14242187 -30.96484375 36.24609375 C-30.95546701 37.64322743 -30.94636669 39.04036299 -30.9375 40.4375 C-30.92912109 41.14455078 -30.92074219 41.85160156 -30.91210938 42.58007812 C-30.90346412 44.38693559 -30.94779989 46.19387603 -31 48 C-32 49 -32 49 -34.95922852 49.11352539 C-36.25272217 49.10828857 -37.54621582 49.10305176 -38.87890625 49.09765625 C-39.90889992 49.09553383 -39.90889992 49.09553383 -40.95970154 49.09336853 C-43.16067801 49.08775479 -45.36155409 49.07520007 -47.5625 49.0625 C-49.05143083 49.05748676 -50.54036324 49.05292355 -52.02929688 49.04882812 C-55.68626805 49.03863021 -59.34302117 49.01905779 -63 49 C-63 53.95 -63 58.9 -63 64 C-68.61 64 -74.22 64 -80 64 C-80 58.72 -80 53.44 -80 48 C-74.72 48 -69.44 48 -64 48 C-64 42.72 -64 37.44 -64 32 C-53.44 32 -42.88 32 -32 32 C-32 26.72 -32 21.44 -32 16 C-21.44 16 -10.88 16 0 16 C0 10.72 0 5.44 0 0 Z " fill="#F4CEB6" transform="translate(512,320)"/>
<path d="M0 0 C10.56 0 21.12 0 32 0 C32 15.84 32 31.68 32 48 C21.44 48 10.88 48 0 48 C0 32.16 0 16.32 0 0 Z " fill="#324053" transform="translate(592,752)"/>
<path d="M0 0 C10.56 0 21.12 0 32 0 C32 10.56 32 21.12 32 32 C21.44 32 10.88 32 0 32 C0 21.44 0 10.88 0 0 Z " fill="#FBFEF9" transform="translate(208,704)"/>
<path d="M0 0 C15.84 0 31.68 0 48 0 C48 5.28 48 10.56 48 16 C32.16 16 16.32 16 0 16 C0 10.72 0 5.44 0 0 Z " fill="#334256" transform="translate(704,784)"/>
<path d="M0 0 C5.28 0 10.56 0 16 0 C16 15.84 16 31.68 16 48 C10.72 48 5.44 48 0 48 C0 32.16 0 16.32 0 0 Z " fill="#FDF9F8" transform="translate(592,240)"/>
<path d="M0 0 C15.18 0 30.36 0 46 0 C46 4.62 46 9.24 46 14 C35.48670487 14.80578665 25.10235029 15.12866275 14.5625 15.0625 C13.1373714 15.05746421 11.71224104 15.05290506 10.28710938 15.04882812 C6.85799093 15.03887711 3.42912815 15.0192768 0 15 C0 10.05 0 5.1 0 0 Z " fill="#272736" transform="translate(529,721)"/>
<path d="M0 0 C10.56 0 21.12 0 32 0 C32 5.28 32 10.56 32 16 C21.44 16 10.88 16 0 16 C0 10.72 0 5.44 0 0 Z " fill="#F9FCF7" transform="translate(320,784)"/>
<path d="M0 0 C10.56 0 21.12 0 32 0 C32 5.28 32 10.56 32 16 C21.44 16 10.88 16 0 16 C0 10.72 0 5.44 0 0 Z " fill="#334257" transform="translate(832,736)"/>
<path d="M0 0 C5.28 0 10.56 0 16 0 C16 10.56 16 21.12 16 32 C10.72 32 5.44 32 0 32 C0 21.44 0 10.88 0 0 Z " fill="#FDF7F7" transform="translate(416,384)"/>
<path d="M0 0 C10.23 0 20.46 0 31 0 C31 4.95 31 9.9 31 15 C20.77 15 10.54 15 0 15 C0 10.05 0 5.1 0 0 Z " fill="#FFFDFB" transform="translate(449,353)"/>
<path d="M0 0 C10.23 0 20.46 0 31 0 C31 4.95 31 9.9 31 15 C20.77 15 10.54 15 0 15 C0 10.05 0 5.1 0 0 Z " fill="#FFFDFB" transform="translate(481,337)"/>
<path d="M0 0 C10.23 0 20.46 0 31 0 C31 4.95 31 9.9 31 15 C20.77 15 10.54 15 0 15 C0 10.05 0 5.1 0 0 Z " fill="#FFFDFB" transform="translate(561,289)"/>
<path d="M0 0 C0.33 0 0.66 0 1 0 C1 5.28 1 10.56 1 16 C5.95 16 10.9 16 16 16 C16 21.28 16 26.56 16 32 C10.72 32 5.44 32 0 32 C0 21.44 0 10.88 0 0 Z " fill="#324054" transform="translate(880,704)"/>
<path d="M0 0 C5.28 0 10.56 0 16 0 C16 5.28 16 10.56 16 16 C10.72 16 5.44 16 0 16 C0 10.72 0 5.44 0 0 Z " fill="#2F323A" transform="translate(352,784)"/>
<path d="M0 0 C4.95 0 9.9 0 15 0 C15 4.95 15 9.9 15 15 C10.05 15 5.1 15 0 15 C0 10.05 0 5.1 0 0 Z " fill="#FFFCFA" transform="translate(513,321)"/>
<path d="M0 0 C4.95 0 9.9 0 15 0 C15 4.95 15 9.9 15 15 C10.05 15 5.1 15 0 15 C0 10.05 0 5.1 0 0 Z " fill="#FFFCFA" transform="translate(545,305)"/>
<path d="M0 0 C4.62 0 9.24 0 14 0 C14 4.95 14 9.9 14 15 C9.38 15 4.76 15 0 15 C0 10.05 0 5.1 0 0 Z " fill="#272736" transform="translate(785,800)"/>
<path d="M0 0 C4.62 0 9.24 0 14 0 C14 4.95 14 9.9 14 15 C9.38 15 4.76 15 0 15 C0 10.05 0 5.1 0 0 Z " fill="#272736" transform="translate(401,769)"/>
<path d="M0 0 C4.62 0 9.24 0 14 0 C14 4.95 14 9.9 14 15 C9.38 15 4.76 15 0 15 C0 10.05 0 5.1 0 0 Z " fill="#272736" transform="translate(449,753)"/>
<path d="M0 0 C4.62 0 9.24 0 14 0 C14 4.62 14 9.24 14 14 C9.38 14 4.76 14 0 14 C0 9.38 0 4.76 0 0 Z " fill="#FFFFFF" transform="translate(433,369)"/>
<path d="M0 0 C10.56 0 21.12 0 32 0 C32 0.33 32 0.66 32 1 C21.77 1 11.54 1 1 1 C1 5.95 1 10.9 1 16 C11.23 16 21.46 16 32 16 C32 16.33 32 16.66 32 17 C21.77 17 11.54 17 1 17 C1 21.95 1 26.9 1 32 C0.67 32 0.34 32 0 32 C0 27.05 0 22.1 0 17 C-4.95 17 -9.9 17 -15 17 C-15 21.95 -15 26.9 -15 32 C-15.33 32 -15.66 32 -16 32 C-16 26.72 -16 21.44 -16 16 C-10.72 16 -5.44 16 0 16 C0 10.72 0 5.44 0 0 Z " fill="#EECBBA" transform="translate(560,288)"/>
<path d="M0 0 C5.28 0 10.56 0 16 0 C16 0.33 16 0.66 16 1 C11.05 1 6.1 1 1 1 C1 5.95 1 10.9 1 16 C5.95 16 10.9 16 16 16 C16 16.33 16 16.66 16 17 C11.05 17 6.1 17 1 17 C1 21.95 1 26.9 1 32 C0.67 32 0.34 32 0 32 C0 27.05 0 22.1 0 17 C-10.23 17 -20.46 17 -31 17 C-31 21.95 -31 26.9 -31 32 C-31.33 32 -31.66 32 -32 32 C-32 26.72 -32 21.44 -32 16 C-21.44 16 -10.88 16 0 16 C0 10.72 0 5.44 0 0 Z " fill="#ECCCC0" transform="translate(512,320)"/>
</svg>
