<?xml version="1.0" encoding="UTF-8"?>
<svg version="1.1" xmlns="http://www.w3.org/2000/svg" width="512" height="512">
<path d="M0 0 C168.96 0 337.92 0 512 0 C512 168.96 512 337.92 512 512 C343.04 512 174.08 512 0 512 C0 343.04 0 174.08 0 0 Z " fill="#FFFFFF" transform="translate(0,0)"/>
<path d="M0 0 C7.92 0 15.84 0 24 0 C24 5.28 24 10.56 24 16 C26.64 16 29.28 16 32 16 C32 18.64 32 21.28 32 24 C34.64 24 37.28 24 40 24 C40 29.28 40 34.56 40 40 C42.64 40 45.28 40 48 40 C48 45.28 48 50.56 48 56 C50.64 56 53.28 56 56 56 C56 58.64 56 61.28 56 64 C58.64 64 61.28 64 64 64 C64 69.28 64 74.56 64 80 C66.64 80 69.28 80 72 80 C72 85.28 72 90.56 72 96 C74.64 96 77.28 96 80 96 C80 101.28 80 106.56 80 112 C82.64 112 85.28 112 88 112 C88 114.64 88 117.28 88 120 C90.64 120 93.28 120 96 120 C96 125.28 96 130.56 96 136 C98.64 136 101.28 136 104 136 C104 141.28 104 146.56 104 152 C106.64 152 109.28 152 112 152 C112 157.28 112 162.56 112 168 C114.64 168 117.28 168 120 168 C120 170.64 120 173.28 120 176 C122.64 176 125.28 176 128 176 C128 181.28 128 186.56 128 192 C130.64 192 133.28 192 136 192 C136 202.56 136 213.12 136 224 C133.36 224 130.72 224 128 224 C128 226.64 128 229.28 128 232 C122.72 232 117.44 232 112 232 C112 234.64 112 237.28 112 240 C106.72 240 101.44 240 96 240 C96 242.64 96 245.28 96 248 C90.72 248 85.44 248 80 248 C80 250.64 80 253.28 80 256 C74.72 256 69.44 256 64 256 C64 258.64 64 261.28 64 264 C61.36 264 58.72 264 56 264 C56 266.64 56 269.28 56 272 C50.72 272 45.44 272 40 272 C40 274.64 40 277.28 40 280 C34.72 280 29.44 280 24 280 C24 282.64 24 285.28 24 288 C18.72 288 13.44 288 8 288 C8 290.64 8 293.28 8 296 C2.72 296 -2.56 296 -8 296 C-8 293.36 -8 290.72 -8 288 C-10.64 288 -13.28 288 -16 288 C-16 285.36 -16 282.72 -16 280 C-18.64 280 -21.28 280 -24 280 C-24 282.64 -24 285.28 -24 288 C-29.28 288 -34.56 288 -40 288 C-40 290.64 -40 293.28 -40 296 C-50.56 296 -61.12 296 -72 296 C-72 293.36 -72 290.72 -72 288 C-74.64 288 -77.28 288 -80 288 C-80 282.72 -80 277.44 -80 272 C-82.64 272 -85.28 272 -88 272 C-88 266.72 -88 261.44 -88 256 C-90.64 256 -93.28 256 -96 256 C-96 253.36 -96 250.72 -96 248 C-98.64 248 -101.28 248 -104 248 C-104 242.72 -104 237.44 -104 232 C-106.64 232 -109.28 232 -112 232 C-112 226.72 -112 221.44 -112 216 C-114.64 216 -117.28 216 -120 216 C-120 213.36 -120 210.72 -120 208 C-122.64 208 -125.28 208 -128 208 C-128 202.72 -128 197.44 -128 192 C-130.64 192 -133.28 192 -136 192 C-136 186.72 -136 181.44 -136 176 C-138.64 176 -141.28 176 -144 176 C-144 173.36 -144 170.72 -144 168 C-146.64 168 -149.28 168 -152 168 C-152 162.72 -152 157.44 -152 152 C-154.64 152 -157.28 152 -160 152 C-160 146.72 -160 141.44 -160 136 C-162.64 136 -165.28 136 -168 136 C-168 133.36 -168 130.72 -168 128 C-170.64 128 -173.28 128 -176 128 C-176 112.16 -176 96.32 -176 80 C-173.36 80 -170.72 80 -168 80 C-168 77.36 -168 74.72 -168 72 C-165.36 72 -162.72 72 -160 72 C-160 69.36 -160 66.72 -160 64 C-154.72 64 -149.44 64 -144 64 C-144 61.36 -144 58.72 -144 56 C-138.72 56 -133.44 56 -128 56 C-128 53.36 -128 50.72 -128 48 C-122.72 48 -117.44 48 -112 48 C-112 45.36 -112 42.72 -112 40 C-106.72 40 -101.44 40 -96 40 C-96 37.36 -96 34.72 -96 32 C-93.36 32 -90.72 32 -88 32 C-88 29.36 -88 26.72 -88 24 C-82.72 24 -77.44 24 -72 24 C-72 21.36 -72 18.72 -72 16 C-66.72 16 -61.44 16 -56 16 C-56 13.36 -56 10.72 -56 8 C-48.08 8 -40.16 8 -32 8 C-32 13.28 -32 18.56 -32 24 C-29.36 24 -26.72 24 -24 24 C-24 21.36 -24 18.72 -24 16 C-21.36 16 -18.72 16 -16 16 C-16 13.36 -16 10.72 -16 8 C-10.72 8 -5.44 8 0 8 C0 5.36 0 2.72 0 0 Z " fill="#FFB570" transform="translate(280,16)"/>
<path d="M0 0 C7.92 0 15.84 0 24 0 C24 5.28 24 10.56 24 16 C26.64 16 29.28 16 32 16 C32 18.64 32 21.28 32 24 C34.64 24 37.28 24 40 24 C40 29.28 40 34.56 40 40 C42.64 40 45.28 40 48 40 C48 45.28 48 50.56 48 56 C50.64 56 53.28 56 56 56 C56 58.64 56 61.28 56 64 C58.64 64 61.28 64 64 64 C64 69.28 64 74.56 64 80 C66.64 80 69.28 80 72 80 C72 93.2 72 106.4 72 120 C66.72 120 61.44 120 56 120 C56 122.64 56 125.28 56 128 C53.36 128 50.72 128 48 128 C48 130.64 48 133.28 48 136 C42.72 136 37.44 136 32 136 C32 138.64 32 141.28 32 144 C26.72 144 21.44 144 16 144 C16 146.64 16 149.28 16 152 C10.72 152 5.44 152 0 152 C0 154.64 0 157.28 0 160 C-2.64 160 -5.28 160 -8 160 C-8 162.64 -8 165.28 -8 168 C-10.64 168 -13.28 168 -16 168 C-16 173.28 -16 178.56 -16 184 C-13.36 184 -10.72 184 -8 184 C-8 186.64 -8 189.28 -8 192 C-5.36 192 -2.72 192 0 192 C0 197.28 0 202.56 0 208 C2.64 208 5.28 208 8 208 C8 213.28 8 218.56 8 224 C10.64 224 13.28 224 16 224 C16 229.28 16 234.56 16 240 C18.64 240 21.28 240 24 240 C24 245.28 24 250.56 24 256 C26.64 256 29.28 256 32 256 C32 263.92 32 271.84 32 280 C26.72 280 21.44 280 16 280 C16 282.64 16 285.28 16 288 C5.44 288 -5.12 288 -16 288 C-16 285.36 -16 282.72 -16 280 C-18.64 280 -21.28 280 -24 280 C-24 274.72 -24 269.44 -24 264 C-26.64 264 -29.28 264 -32 264 C-32 258.72 -32 253.44 -32 248 C-34.64 248 -37.28 248 -40 248 C-40 245.36 -40 242.72 -40 240 C-42.64 240 -45.28 240 -48 240 C-48 234.72 -48 229.44 -48 224 C-50.64 224 -53.28 224 -56 224 C-56 218.72 -56 213.44 -56 208 C-58.64 208 -61.28 208 -64 208 C-64 205.36 -64 202.72 -64 200 C-66.64 200 -69.28 200 -72 200 C-72 194.72 -72 189.44 -72 184 C-74.64 184 -77.28 184 -80 184 C-80 178.72 -80 173.44 -80 168 C-82.64 168 -85.28 168 -88 168 C-88 165.36 -88 162.72 -88 160 C-90.64 160 -93.28 160 -96 160 C-96 154.72 -96 149.44 -96 144 C-98.64 144 -101.28 144 -104 144 C-104 138.72 -104 133.44 -104 128 C-106.64 128 -109.28 128 -112 128 C-112 125.36 -112 122.72 -112 120 C-114.64 120 -117.28 120 -120 120 C-120 104.16 -120 88.32 -120 72 C-117.36 72 -114.72 72 -112 72 C-112 69.36 -112 66.72 -112 64 C-109.36 64 -106.72 64 -104 64 C-104 61.36 -104 58.72 -104 56 C-98.72 56 -93.44 56 -88 56 C-88 53.36 -88 50.72 -88 48 C-82.72 48 -77.44 48 -72 48 C-72 45.36 -72 42.72 -72 40 C-66.72 40 -61.44 40 -56 40 C-56 37.36 -56 34.72 -56 32 C-50.72 32 -45.44 32 -40 32 C-40 29.36 -40 26.72 -40 24 C-37.36 24 -34.72 24 -32 24 C-32 21.36 -32 18.72 -32 16 C-26.72 16 -21.44 16 -16 16 C-16 13.36 -16 10.72 -16 8 C-10.72 8 -5.44 8 0 8 C0 5.36 0 2.72 0 0 Z " fill="#EB564B" transform="translate(224,24)"/>
<path d="M0 0 C5.28 0 10.56 0 16 0 C16 15.84 16 31.68 16 48 C18.64 48 21.28 48 24 48 C24 32.16 24 16.32 24 0 C29.28 0 34.56 0 40 0 C40 2.64 40 5.28 40 8 C42.64 8 45.28 8 48 8 C48 10.64 48 13.28 48 16 C50.64 16 53.28 16 56 16 C56 21.28 56 26.56 56 32 C58.64 32 61.28 32 64 32 C64 21.44 64 10.88 64 0 C69.28 0 74.56 0 80 0 C80 7.92 80 15.84 80 24 C87.92 24 95.84 24 104 24 C104 26.64 104 29.28 104 32 C101.36 32 98.72 32 96 32 C96 45.2 96 58.4 96 72 C98.64 72 101.28 72 104 72 C104 77.28 104 82.56 104 88 C114.56 88 125.12 88 136 88 C136 82.72 136 77.44 136 72 C138.64 72 141.28 72 144 72 C144 58.8 144 45.6 144 32 C141.36 32 138.72 32 136 32 C136 26.72 136 21.44 136 16 C143.92 16 151.84 16 160 16 C160 13.36 160 10.72 160 8 C170.56 8 181.12 8 192 8 C192 15.92 192 23.84 192 32 C181.44 32 170.88 32 160 32 C160 34.64 160 37.28 160 40 C157.36 40 154.72 40 152 40 C152 50.56 152 61.12 152 72 C154.64 72 157.28 72 160 72 C160 77.28 160 82.56 160 88 C154.72 88 149.44 88 144 88 C144 90.64 144 93.28 144 96 C125.52 96 107.04 96 88 96 C88 98.64 88 101.28 88 104 C77.44 104 66.88 104 56 104 C56 106.64 56 109.28 56 112 C45.44 112 34.88 112 24 112 C24 114.64 24 117.28 24 120 C13.44 120 2.88 120 -8 120 C-8 122.64 -8 125.28 -8 128 C-15.92 128 -23.84 128 -32 128 C-32 130.64 -32 133.28 -32 136 C-39.92 136 -47.84 136 -56 136 C-56 138.64 -56 141.28 -56 144 C-63.92 144 -71.84 144 -80 144 C-80 146.64 -80 149.28 -80 152 C-93.2 152 -106.4 152 -120 152 C-120 146.72 -120 141.44 -120 136 C-117.36 136 -114.72 136 -112 136 C-112 133.36 -112 130.72 -112 128 C-109.36 128 -106.72 128 -104 128 C-104 125.36 -104 122.72 -104 120 C-101.36 120 -98.72 120 -96 120 C-96 117.36 -96 114.72 -96 112 C-93.36 112 -90.72 112 -88 112 C-88 109.36 -88 106.72 -88 104 C-80.08 104 -72.16 104 -64 104 C-64 98.72 -64 93.44 -64 88 C-61.36 88 -58.72 88 -56 88 C-56 85.36 -56 82.72 -56 80 C-48.08 80 -40.16 80 -32 80 C-32 77.36 -32 74.72 -32 72 C-34.64 72 -37.28 72 -40 72 C-40 61.44 -40 50.88 -40 40 C-37.36 40 -34.72 40 -32 40 C-32 37.36 -32 34.72 -32 32 C-21.44 32 -10.88 32 0 32 C0 21.44 0 10.88 0 0 Z " fill="#323E4F" transform="translate(184,336)"/>
<path d="M0 0 C10.56 0 21.12 0 32 0 C32 7.92 32 15.84 32 24 C21.44 24 10.88 24 0 24 C0 26.64 0 29.28 0 32 C-2.64 32 -5.28 32 -8 32 C-8 42.56 -8 53.12 -8 64 C-5.36 64 -2.72 64 0 64 C0 69.28 0 74.56 0 80 C-5.28 80 -10.56 80 -16 80 C-16 82.64 -16 85.28 -16 88 C-34.48 88 -52.96 88 -72 88 C-72 90.64 -72 93.28 -72 96 C-82.56 96 -93.12 96 -104 96 C-104 98.64 -104 101.28 -104 104 C-114.56 104 -125.12 104 -136 104 C-136 106.64 -136 109.28 -136 112 C-146.56 112 -157.12 112 -168 112 C-168 114.64 -168 117.28 -168 120 C-175.92 120 -183.84 120 -192 120 C-192 122.64 -192 125.28 -192 128 C-199.92 128 -207.84 128 -216 128 C-216 130.64 -216 133.28 -216 136 C-223.92 136 -231.84 136 -240 136 C-240 138.64 -240 141.28 -240 144 C-253.2 144 -266.4 144 -280 144 C-280 138.72 -280 133.44 -280 128 C-277.36 128 -274.72 128 -272 128 C-272 130.64 -272 133.28 -272 136 C-264.08 136 -256.16 136 -248 136 C-248 133.36 -248 130.72 -248 128 C-240.08 128 -232.16 128 -224 128 C-224 125.36 -224 122.72 -224 120 C-216.08 120 -208.16 120 -200 120 C-200 117.36 -200 114.72 -200 112 C-192.08 112 -184.16 112 -176 112 C-176 109.36 -176 106.72 -176 104 C-165.44 104 -154.88 104 -144 104 C-144 101.36 -144 98.72 -144 96 C-133.44 96 -122.88 96 -112 96 C-112 93.36 -112 90.72 -112 88 C-101.44 88 -90.88 88 -80 88 C-80 64.24 -80 40.48 -80 16 C-72.08 16 -64.16 16 -56 16 C-56 18.64 -56 21.28 -56 24 C-58.64 24 -61.28 24 -64 24 C-64 37.2 -64 50.4 -64 64 C-61.36 64 -58.72 64 -56 64 C-56 69.28 -56 74.56 -56 80 C-45.44 80 -34.88 80 -24 80 C-24 74.72 -24 69.44 -24 64 C-21.36 64 -18.72 64 -16 64 C-16 50.8 -16 37.6 -16 24 C-18.64 24 -21.28 24 -24 24 C-24 18.72 -24 13.44 -24 8 C-16.08 8 -8.16 8 0 8 C0 5.36 0 2.72 0 0 Z " fill="#272736" transform="translate(344,344)"/>
<path d="M0 0 C5.28 0 10.56 0 16 0 C16 5.28 16 10.56 16 16 C18.64 16 21.28 16 24 16 C24 21.28 24 26.56 24 32 C26.64 32 29.28 32 32 32 C32 34.64 32 37.28 32 40 C34.64 40 37.28 40 40 40 C40 45.28 40 50.56 40 56 C42.64 56 45.28 56 48 56 C48 61.28 48 66.56 48 72 C50.64 72 53.28 72 56 72 C56 74.64 56 77.28 56 80 C58.64 80 61.28 80 64 80 C64 85.28 64 90.56 64 96 C71.92 96 79.84 96 88 96 C88 93.36 88 90.72 88 88 C93.28 88 98.56 88 104 88 C104 85.36 104 82.72 104 80 C109.28 80 114.56 80 120 80 C120 77.36 120 74.72 120 72 C122.64 72 125.28 72 128 72 C128 69.36 128 66.72 128 64 C133.28 64 138.56 64 144 64 C144 61.36 144 58.72 144 56 C149.28 56 154.56 56 160 56 C160 53.36 160 50.72 160 48 C165.28 48 170.56 48 176 48 C176 45.36 176 42.72 176 40 C181.28 40 186.56 40 192 40 C192 37.36 192 34.72 192 32 C194.64 32 197.28 32 200 32 C200 29.36 200 26.72 200 24 C202.64 24 205.28 24 208 24 C208 31.92 208 39.84 208 48 C205.36 48 202.72 48 200 48 C200 50.64 200 53.28 200 56 C194.72 56 189.44 56 184 56 C184 58.64 184 61.28 184 64 C178.72 64 173.44 64 168 64 C168 66.64 168 69.28 168 72 C162.72 72 157.44 72 152 72 C152 74.64 152 77.28 152 80 C146.72 80 141.44 80 136 80 C136 82.64 136 85.28 136 88 C133.36 88 130.72 88 128 88 C128 90.64 128 93.28 128 96 C122.72 96 117.44 96 112 96 C112 98.64 112 101.28 112 104 C106.72 104 101.44 104 96 104 C96 106.64 96 109.28 96 112 C90.72 112 85.44 112 80 112 C80 114.64 80 117.28 80 120 C74.72 120 69.44 120 64 120 C64 117.36 64 114.72 64 112 C61.36 112 58.72 112 56 112 C56 109.36 56 106.72 56 104 C53.36 104 50.72 104 48 104 C48 98.72 48 93.44 48 88 C45.36 88 42.72 88 40 88 C40 82.72 40 77.44 40 72 C37.36 72 34.72 72 32 72 C32 66.72 32 61.44 32 56 C29.36 56 26.72 56 24 56 C24 50.72 24 45.44 24 40 C21.36 40 18.72 40 16 40 C16 34.72 16 29.44 16 24 C13.36 24 10.72 24 8 24 C8 21.36 8 18.72 8 16 C5.36 16 2.72 16 0 16 C0 10.72 0 5.44 0 0 Z " fill="#FF9166" transform="translate(208,192)"/>
<path d="M0 0 C2.64 0 5.28 0 8 0 C8 5.28 8 10.56 8 16 C10.64 16 13.28 16 16 16 C16 18.64 16 21.28 16 24 C18.64 24 21.28 24 24 24 C24 29.28 24 34.56 24 40 C26.64 40 29.28 40 32 40 C32 45.28 32 50.56 32 56 C34.64 56 37.28 56 40 56 C40 61.28 40 66.56 40 72 C42.64 72 45.28 72 48 72 C48 74.64 48 77.28 48 80 C50.64 80 53.28 80 56 80 C56 85.28 56 90.56 56 96 C58.64 96 61.28 96 64 96 C64 101.28 64 106.56 64 112 C66.64 112 69.28 112 72 112 C72 117.28 72 122.56 72 128 C74.64 128 77.28 128 80 128 C80 130.64 80 133.28 80 136 C82.64 136 85.28 136 88 136 C88 141.28 88 146.56 88 152 C90.64 152 93.28 152 96 152 C96 157.28 96 162.56 96 168 C98.64 168 101.28 168 104 168 C104 170.64 104 173.28 104 176 C106.64 176 109.28 176 112 176 C112 181.28 112 186.56 112 192 C119.92 192 127.84 192 136 192 C136 189.36 136 186.72 136 184 C141.28 184 146.56 184 152 184 C152 189.28 152 194.56 152 200 C146.72 200 141.44 200 136 200 C136 202.64 136 205.28 136 208 C125.44 208 114.88 208 104 208 C104 205.36 104 202.72 104 200 C101.36 200 98.72 200 96 200 C96 194.72 96 189.44 96 184 C93.36 184 90.72 184 88 184 C88 178.72 88 173.44 88 168 C85.36 168 82.72 168 80 168 C80 165.36 80 162.72 80 160 C77.36 160 74.72 160 72 160 C72 154.72 72 149.44 72 144 C69.36 144 66.72 144 64 144 C64 138.72 64 133.44 64 128 C61.36 128 58.72 128 56 128 C56 125.36 56 122.72 56 120 C53.36 120 50.72 120 48 120 C48 114.72 48 109.44 48 104 C45.36 104 42.72 104 40 104 C40 98.72 40 93.44 40 88 C37.36 88 34.72 88 32 88 C32 85.36 32 82.72 32 80 C29.36 80 26.72 80 24 80 C24 74.72 24 69.44 24 64 C21.36 64 18.72 64 16 64 C16 58.72 16 53.44 16 48 C13.36 48 10.72 48 8 48 C8 45.36 8 42.72 8 40 C5.36 40 2.72 40 0 40 C0 26.8 0 13.6 0 0 Z " fill="#964253" transform="translate(104,104)"/>
<path d="M0 0 C18.48 0 36.96 0 56 0 C56 2.64 56 5.28 56 8 C58.64 8 61.28 8 64 8 C64 10.64 64 13.28 64 16 C66.64 16 69.28 16 72 16 C72 18.64 72 21.28 72 24 C74.64 24 77.28 24 80 24 C80 26.64 80 29.28 80 32 C82.64 32 85.28 32 88 32 C88 34.64 88 37.28 88 40 C90.64 40 93.28 40 96 40 C96 42.64 96 45.28 96 48 C98.64 48 101.28 48 104 48 C104 58.56 104 69.12 104 80 C90.8 80 77.6 80 64 80 C64 77.36 64 74.72 64 72 C58.72 72 53.44 72 48 72 C48 69.36 48 66.72 48 64 C50.64 64 53.28 64 56 64 C56 61.36 56 58.72 56 56 C45.44 56 34.88 56 24 56 C24 53.36 24 50.72 24 48 C34.56 48 45.12 48 56 48 C56 40.08 56 32.16 56 24 C53.36 24 50.72 24 48 24 C48 18.72 48 13.44 48 8 C37.44 8 26.88 8 16 8 C16 13.28 16 18.56 16 24 C13.36 24 10.72 24 8 24 C8 37.2 8 50.4 8 64 C5.36 64 2.72 64 0 64 C0 42.88 0 21.76 0 0 Z " fill="#272736" transform="translate(392,344)"/>
<path d="M0 0 C15.84 0 31.68 0 48 0 C48 2.64 48 5.28 48 8 C50.64 8 53.28 8 56 8 C56 18.56 56 29.12 56 40 C53.36 40 50.72 40 48 40 C48 45.28 48 50.56 48 56 C40.08 56 32.16 56 24 56 C24 66.56 24 77.12 24 88 C16.08 88 8.16 88 0 88 C0 58.96 0 29.92 0 0 Z " fill="#8FDE5D" transform="translate(80,336)"/>
<path d="M0 0 C5.28 0 10.56 0 16 0 C16 2.64 16 5.28 16 8 C18.64 8 21.28 8 24 8 C24 10.64 24 13.28 24 16 C26.64 16 29.28 16 32 16 C32 21.28 32 26.56 32 32 C34.64 32 37.28 32 40 32 C40 21.44 40 10.88 40 0 C45.28 0 50.56 0 56 0 C56 29.04 56 58.08 56 88 C50.72 88 45.44 88 40 88 C40 80.08 40 72.16 40 64 C37.36 64 34.72 64 32 64 C32 61.36 32 58.72 32 56 C29.36 56 26.72 56 24 56 C24 50.72 24 45.44 24 40 C21.36 40 18.72 40 16 40 C16 55.84 16 71.68 16 88 C10.72 88 5.44 88 0 88 C0 58.96 0 29.92 0 0 Z " fill="#4DA6FF" transform="translate(208,336)"/>
<path d="M0 0 C5.28 0 10.56 0 16 0 C16 29.04 16 58.08 16 88 C0.16 88 -15.68 88 -32 88 C-32 82.72 -32 77.44 -32 72 C-34.64 72 -37.28 72 -40 72 C-40 61.44 -40 50.88 -40 40 C-37.36 40 -34.72 40 -32 40 C-32 37.36 -32 34.72 -32 32 C-21.44 32 -10.88 32 0 32 C0 21.44 0 10.88 0 0 Z " fill="#4DA6FF" transform="translate(376,336)"/>
<path d="M0 0 C5.28 0 10.56 0 16 0 C16 29.04 16 58.08 16 88 C0.16 88 -15.68 88 -32 88 C-32 82.72 -32 77.44 -32 72 C-34.64 72 -37.28 72 -40 72 C-40 61.44 -40 50.88 -40 40 C-37.36 40 -34.72 40 -32 40 C-32 37.36 -32 34.72 -32 32 C-21.44 32 -10.88 32 0 32 C0 21.44 0 10.88 0 0 Z " fill="#8FDE5D" transform="translate(184,336)"/>
<path d="M0 0 C10.56 0 21.12 0 32 0 C32 5.28 32 10.56 32 16 C34.64 16 37.28 16 40 16 C40 29.2 40 42.4 40 56 C37.36 56 34.72 56 32 56 C32 61.28 32 66.56 32 72 C21.44 72 10.88 72 0 72 C0 66.72 0 61.44 0 56 C-2.64 56 -5.28 56 -8 56 C-8 42.8 -8 29.6 -8 16 C-5.36 16 -2.72 16 0 16 C0 10.72 0 5.44 0 0 Z " fill="#4DA6FF" transform="translate(288,352)"/>
<path d="M0 0 C2.64 0 5.28 0 8 0 C8 2.64 8 5.28 8 8 C10.64 8 13.28 8 16 8 C16 13.28 16 18.56 16 24 C18.64 24 21.28 24 24 24 C24 26.64 24 29.28 24 32 C21.36 32 18.72 32 16 32 C16 34.64 16 37.28 16 40 C13.36 40 10.72 40 8 40 C8 42.64 8 45.28 8 48 C2.72 48 -2.56 48 -8 48 C-8 50.64 -8 53.28 -8 56 C-13.28 56 -18.56 56 -24 56 C-24 58.64 -24 61.28 -24 64 C-29.28 64 -34.56 64 -40 64 C-40 61.36 -40 58.72 -40 56 C-42.64 56 -45.28 56 -48 56 C-48 53.36 -48 50.72 -48 48 C-50.64 48 -53.28 48 -56 48 C-56 42.72 -56 37.44 -56 32 C-53.36 32 -50.72 32 -48 32 C-48 29.36 -48 26.72 -48 24 C-42.72 24 -37.44 24 -32 24 C-32 21.36 -32 18.72 -32 16 C-29.36 16 -26.72 16 -24 16 C-24 13.36 -24 10.72 -24 8 C-16.08 8 -8.16 8 0 8 C0 5.36 0 2.72 0 0 Z " fill="#FFFFFF" transform="translate(328,184)"/>
<path d="M0 0 C10.56 0 21.12 0 32 0 C32 5.28 32 10.56 32 16 C34.64 16 37.28 16 40 16 C40 23.92 40 31.84 40 40 C29.44 40 18.88 40 8 40 C8 42.64 8 45.28 8 48 C18.56 48 29.12 48 40 48 C40 50.64 40 53.28 40 56 C37.36 56 34.72 56 32 56 C32 61.28 32 66.56 32 72 C21.44 72 10.88 72 0 72 C0 66.72 0 61.44 0 56 C-2.64 56 -5.28 56 -8 56 C-8 42.8 -8 29.6 -8 16 C-5.36 16 -2.72 16 0 16 C0 10.72 0 5.44 0 0 Z " fill="#4DA6FF" transform="translate(408,352)"/>
<path d="M0 0 C5.28 0 10.56 0 16 0 C16 5.28 16 10.56 16 16 C18.64 16 21.28 16 24 16 C24 21.28 24 26.56 24 32 C21.36 32 18.72 32 16 32 C16 34.64 16 37.28 16 40 C10.72 40 5.44 40 0 40 C0 42.64 0 45.28 0 48 C-5.28 48 -10.56 48 -16 48 C-16 50.64 -16 53.28 -16 56 C-23.92 56 -31.84 56 -40 56 C-40 53.36 -40 50.72 -40 48 C-42.64 48 -45.28 48 -48 48 C-48 45.36 -48 42.72 -48 40 C-50.64 40 -53.28 40 -56 40 C-56 37.36 -56 34.72 -56 32 C-50.72 32 -45.44 32 -40 32 C-40 29.36 -40 26.72 -40 24 C-37.36 24 -34.72 24 -32 24 C-32 21.36 -32 18.72 -32 16 C-26.72 16 -21.44 16 -16 16 C-16 13.36 -16 10.72 -16 8 C-10.72 8 -5.44 8 0 8 C0 5.36 0 2.72 0 0 Z " fill="#FFFFFF" transform="translate(216,88)"/>
<path d="M0 0 C5.28 0 10.56 0 16 0 C16 2.64 16 5.28 16 8 C18.64 8 21.28 8 24 8 C24 10.64 24 13.28 24 16 C26.64 16 29.28 16 32 16 C32 21.28 32 26.56 32 32 C34.64 32 37.28 32 40 32 C40 37.28 40 42.56 40 48 C37.36 48 34.72 48 32 48 C32 50.64 32 53.28 32 56 C29.36 56 26.72 56 24 56 C24 50.72 24 45.44 24 40 C21.36 40 18.72 40 16 40 C16 34.72 16 29.44 16 24 C10.72 24 5.44 24 0 24 C0 26.64 0 29.28 0 32 C-5.28 32 -10.56 32 -16 32 C-16 34.64 -16 37.28 -16 40 C-21.28 40 -26.56 40 -32 40 C-32 42.64 -32 45.28 -32 48 C-34.64 48 -37.28 48 -40 48 C-40 50.64 -40 53.28 -40 56 C-45.28 56 -50.56 56 -56 56 C-56 48.08 -56 40.16 -56 32 C-50.72 32 -45.44 32 -40 32 C-40 29.36 -40 26.72 -40 24 C-37.36 24 -34.72 24 -32 24 C-32 21.36 -32 18.72 -32 16 C-26.72 16 -21.44 16 -16 16 C-16 13.36 -16 10.72 -16 8 C-10.72 8 -5.44 8 0 8 C0 5.36 0 2.72 0 0 Z " fill="#964253" transform="translate(216,64)"/>
<path d="M0 0 C2.64 0 5.28 0 8 0 C8 2.64 8 5.28 8 8 C10.64 8 13.28 8 16 8 C16 10.64 16 13.28 16 16 C18.64 16 21.28 16 24 16 C24 18.64 24 21.28 24 24 C26.64 24 29.28 24 32 24 C32 34.56 32 45.12 32 56 C29.36 56 26.72 56 24 56 C24 53.36 24 50.72 24 48 C21.36 48 18.72 48 16 48 C16 42.72 16 37.44 16 32 C13.36 32 10.72 32 8 32 C8 29.36 8 26.72 8 24 C5.36 24 2.72 24 0 24 C0 26.64 0 29.28 0 32 C-7.92 32 -15.84 32 -24 32 C-24 34.64 -24 37.28 -24 40 C-26.64 40 -29.28 40 -32 40 C-32 42.64 -32 45.28 -32 48 C-37.28 48 -42.56 48 -48 48 C-48 50.64 -48 53.28 -48 56 C-53.28 56 -58.56 56 -64 56 C-64 50.72 -64 45.44 -64 40 C-61.36 40 -58.72 40 -56 40 C-56 37.36 -56 34.72 -56 32 C-50.72 32 -45.44 32 -40 32 C-40 29.36 -40 26.72 -40 24 C-34.72 24 -29.44 24 -24 24 C-24 21.36 -24 18.72 -24 16 C-18.72 16 -13.44 16 -8 16 C-8 13.36 -8 10.72 -8 8 C-5.36 8 -2.72 8 0 8 C0 5.36 0 2.72 0 0 Z " fill="#FF9166" transform="translate(328,160)"/>
<path d="M0 0 C10.56 0 21.12 0 32 0 C32 7.92 32 15.84 32 24 C21.44 24 10.88 24 0 24 C0 26.64 0 29.28 0 32 C-2.64 32 -5.28 32 -8 32 C-8 42.56 -8 53.12 -8 64 C-5.36 64 -2.72 64 0 64 C0 66.64 0 69.28 0 72 C-7.92 72 -15.84 72 -24 72 C-24 69.36 -24 66.72 -24 64 C-21.36 64 -18.72 64 -16 64 C-16 50.8 -16 37.6 -16 24 C-18.64 24 -21.28 24 -24 24 C-24 18.72 -24 13.44 -24 8 C-16.08 8 -8.16 8 0 8 C0 5.36 0 2.72 0 0 Z " fill="#323E4F" transform="translate(344,344)"/>
<path d="M0 0 C5.28 0 10.56 0 16 0 C16 5.28 16 10.56 16 16 C10.72 16 5.44 16 0 16 C0 18.64 0 21.28 0 24 C-2.64 24 -5.28 24 -8 24 C-8 26.64 -8 29.28 -8 32 C-13.28 32 -18.56 32 -24 32 C-24 34.64 -24 37.28 -24 40 C-29.28 40 -34.56 40 -40 40 C-40 42.64 -40 45.28 -40 48 C-45.28 48 -50.56 48 -56 48 C-56 50.64 -56 53.28 -56 56 C-58.64 56 -61.28 56 -64 56 C-64 58.64 -64 61.28 -64 64 C-69.28 64 -74.56 64 -80 64 C-80 58.72 -80 53.44 -80 48 C-77.36 48 -74.72 48 -72 48 C-72 45.36 -72 42.72 -72 40 C-66.72 40 -61.44 40 -56 40 C-56 37.36 -56 34.72 -56 32 C-50.72 32 -45.44 32 -40 32 C-40 29.36 -40 26.72 -40 24 C-34.72 24 -29.44 24 -24 24 C-24 21.36 -24 18.72 -24 16 C-21.36 16 -18.72 16 -16 16 C-16 13.36 -16 10.72 -16 8 C-10.72 8 -5.44 8 0 8 C0 5.36 0 2.72 0 0 Z " fill="#964253" transform="translate(280,128)"/>
<path d="M0 0 C5.28 0 10.56 0 16 0 C16 5.28 16 10.56 16 16 C18.64 16 21.28 16 24 16 C24 21.28 24 26.56 24 32 C26.64 32 29.28 32 32 32 C32 37.28 32 42.56 32 48 C34.64 48 37.28 48 40 48 C40 53.28 40 58.56 40 64 C42.64 64 45.28 64 48 64 C48 66.64 48 69.28 48 72 C50.64 72 53.28 72 56 72 C56 77.28 56 82.56 56 88 C58.64 88 61.28 88 64 88 C64 93.28 64 98.56 64 104 C61.36 104 58.72 104 56 104 C56 106.64 56 109.28 56 112 C53.36 112 50.72 112 48 112 C48 104.08 48 96.16 48 88 C45.36 88 42.72 88 40 88 C40 82.72 40 77.44 40 72 C37.36 72 34.72 72 32 72 C32 66.72 32 61.44 32 56 C29.36 56 26.72 56 24 56 C24 53.36 24 50.72 24 48 C21.36 48 18.72 48 16 48 C16 42.72 16 37.44 16 32 C13.36 32 10.72 32 8 32 C8 26.72 8 21.44 8 16 C5.36 16 2.72 16 0 16 C0 10.72 0 5.44 0 0 Z " fill="#FF9166" transform="translate(256,32)"/>
<path d="M0 0 C2.64 0 5.28 0 8 0 C8 2.64 8 5.28 8 8 C10.64 8 13.28 8 16 8 C16 10.64 16 13.28 16 16 C18.64 16 21.28 16 24 16 C24 18.64 24 21.28 24 24 C26.64 24 29.28 24 32 24 C32 26.64 32 29.28 32 32 C34.64 32 37.28 32 40 32 C40 37.28 40 42.56 40 48 C32.08 48 24.16 48 16 48 C16 45.36 16 42.72 16 40 C10.72 40 5.44 40 0 40 C0 37.36 0 34.72 0 32 C-10.56 32 -21.12 32 -32 32 C-32 29.36 -32 26.72 -32 24 C-21.44 24 -10.88 24 0 24 C0 16.08 0 8.16 0 0 Z " fill="#323E4F" transform="translate(448,368)"/>
<path d="M0 0 C7.92 0 15.84 0 24 0 C24 2.64 24 5.28 24 8 C21.36 8 18.72 8 16 8 C16 21.2 16 34.4 16 48 C18.64 48 21.28 48 24 48 C24 53.28 24 58.56 24 64 C16.08 64 8.16 64 0 64 C0 42.88 0 21.76 0 0 Z " fill="#323E4F" transform="translate(264,360)"/>
<path d="M0 0 C7.92 0 15.84 0 24 0 C24 2.64 24 5.28 24 8 C18.72 8 13.44 8 8 8 C8 10.64 8 13.28 8 16 C5.36 16 2.72 16 0 16 C0 21.28 0 26.56 0 32 C-7.92 32 -15.84 32 -24 32 C-24 34.64 -24 37.28 -24 40 C-26.64 40 -29.28 40 -32 40 C-32 42.64 -32 45.28 -32 48 C-34.64 48 -37.28 48 -40 48 C-40 50.64 -40 53.28 -40 56 C-45.28 56 -50.56 56 -56 56 C-56 53.36 -56 50.72 -56 48 C-53.36 48 -50.72 48 -48 48 C-48 45.36 -48 42.72 -48 40 C-45.36 40 -42.72 40 -40 40 C-40 37.36 -40 34.72 -40 32 C-37.36 32 -34.72 32 -32 32 C-32 29.36 -32 26.72 -32 24 C-24.08 24 -16.16 24 -8 24 C-8 18.72 -8 13.44 -8 8 C-5.36 8 -2.72 8 0 8 C0 5.36 0 2.72 0 0 Z " fill="#272736" transform="translate(128,416)"/>
<path d="M0 0 C5.28 0 10.56 0 16 0 C16 5.28 16 10.56 16 16 C13.36 16 10.72 16 8 16 C8 29.2 8 42.4 8 56 C5.36 56 2.72 56 0 56 C0 37.52 0 19.04 0 0 Z " fill="#323E4F" transform="translate(392,352)"/>
<path d="M0 0 C10.56 0 21.12 0 32 0 C32 2.64 32 5.28 32 8 C24.08 8 16.16 8 8 8 C8 10.64 8 13.28 8 16 C-2.56 16 -13.12 16 -24 16 C-24 13.36 -24 10.72 -24 8 C-16.08 8 -8.16 8 0 8 C0 5.36 0 2.72 0 0 Z " fill="#272736" transform="translate(344,344)"/>
<path d="M0 0 C5.28 0 10.56 0 16 0 C16 7.92 16 15.84 16 24 C10.72 24 5.44 24 0 24 C0 16.08 0 8.16 0 0 Z " fill="#323E4F" transform="translate(296,376)"/>
<path d="M0 0 C5.28 0 10.56 0 16 0 C16 5.28 16 10.56 16 16 C10.72 16 5.44 16 0 16 C0 10.72 0 5.44 0 0 Z " fill="#FFFFFF" transform="translate(104,352)"/>
<path d="M0 0 C7.92 0 15.84 0 24 0 C24 2.64 24 5.28 24 8 C16.08 8 8.16 8 0 8 C0 5.36 0 2.72 0 0 Z " fill="#323E4F" transform="translate(352,392)"/>
<path d="M0 0 C7.92 0 15.84 0 24 0 C24 2.64 24 5.28 24 8 C16.08 8 8.16 8 0 8 C0 5.36 0 2.72 0 0 Z " fill="#272736" transform="translate(264,360)"/>
<path d="M0 0 C2.64 0 5.28 0 8 0 C8 7.92 8 15.84 8 24 C5.36 24 2.72 24 0 24 C0 16.08 0 8.16 0 0 Z " fill="#FFFFFF" transform="translate(296,120)"/>
<path d="M0 0 C5.28 0 10.56 0 16 0 C16 2.64 16 5.28 16 8 C10.72 8 5.44 8 0 8 C0 5.36 0 2.72 0 0 Z " fill="#FFFFFF" transform="translate(160,392)"/>
<path d="M0 0 C5.28 0 10.56 0 16 0 C16 2.64 16 5.28 16 8 C10.72 8 5.44 8 0 8 C0 5.36 0 2.72 0 0 Z " fill="#323E4F" transform="translate(416,368)"/>
<path d="M0 0 C2.64 0 5.28 0 8 0 C8 5.28 8 10.56 8 16 C5.36 16 2.72 16 0 16 C0 10.72 0 5.44 0 0 Z " fill="#FFFFFF" transform="translate(208,192)"/>
<path d="M0 0 C5.28 0 10.56 0 16 0 C16 2.64 16 5.28 16 8 C10.72 8 5.44 8 0 8 C0 5.36 0 2.72 0 0 Z " fill="#FFFFFF" transform="translate(224,176)"/>
<path d="M0 0 C5.28 0 10.56 0 16 0 C16 2.64 16 5.28 16 8 C10.72 8 5.44 8 0 8 C0 5.36 0 2.72 0 0 Z " fill="#FFFFFF" transform="translate(240,168)"/>
<path d="M0 0 C5.28 0 10.56 0 16 0 C16 2.64 16 5.28 16 8 C10.72 8 5.44 8 0 8 C0 5.36 0 2.72 0 0 Z " fill="#FFFFFF" transform="translate(280,144)"/>
<path d="M0 0 C2.64 0 5.28 0 8 0 C8 2.64 8 5.28 8 8 C5.36 8 2.72 8 0 8 C0 5.36 0 2.72 0 0 Z " fill="#272736" transform="translate(392,400)"/>
<path d="M0 0 C2.64 0 5.28 0 8 0 C8 2.64 8 5.28 8 8 C5.36 8 2.72 8 0 8 C0 5.36 0 2.72 0 0 Z " fill="#272736" transform="translate(176,392)"/>
<path d="M0 0 C2.64 0 5.28 0 8 0 C8 2.64 8 5.28 8 8 C5.36 8 2.72 8 0 8 C0 5.36 0 2.72 0 0 Z " fill="#272736" transform="translate(200,384)"/>
<path d="M0 0 C2.64 0 5.28 0 8 0 C8 2.64 8 5.28 8 8 C5.36 8 2.72 8 0 8 C0 5.36 0 2.72 0 0 Z " fill="#272736" transform="translate(224,376)"/>
<path d="M0 0 C2.64 0 5.28 0 8 0 C8 2.64 8 5.28 8 8 C5.36 8 2.72 8 0 8 C0 5.36 0 2.72 0 0 Z " fill="#323E4F" transform="translate(440,360)"/>
<path d="M0 0 C2.64 0 5.28 0 8 0 C8 2.64 8 5.28 8 8 C5.36 8 2.72 8 0 8 C0 5.36 0 2.72 0 0 Z " fill="#FFFFFF" transform="translate(216,184)"/>
<path d="M0 0 C2.64 0 5.28 0 8 0 C8 2.64 8 5.28 8 8 C5.36 8 2.72 8 0 8 C0 5.36 0 2.72 0 0 Z " fill="#FFFFFF" transform="translate(256,160)"/>
<path d="M0 0 C2.64 0 5.28 0 8 0 C8 2.64 8 5.28 8 8 C5.36 8 2.72 8 0 8 C0 5.36 0 2.72 0 0 Z " fill="#FFFFFF" transform="translate(272,152)"/>
</svg>
